# ProBuilder 4.2.3
# https://unity3d.com/unity/features/worldbuilding/probuilder
# 2/14/2020 3:27:19 PM

mtllib ./Cone.mtl
o Cone

g Cone
v -0.15 -0.15 0
v 0.15 -0.15 0.1732051
v 0.05000003 0.15 0
v 0.05000003 -0.15 0
v 0.15 -0.15 -0.1732051

vt 0 0
vt 0.3464102 5.800172E-09
vt 0.1732051 0.3162278
vt -0.15 0
vt 0.15 0.1732051
vt 0.05000003 0
vt 0.15 -0.1732051

vn -0.4743417 0.3162278 0.8215839
vn 0 -1 0
vn 0.9486833 0.3162278 -8.161702E-08
vn -0.4743417 0.3162278 -0.8215838

usemtl Purple
f 1/1/1 2/2/1 3/3/1
f 4/6/2 2/5/2 1/4/2
f 2/1/3 5/2/3 3/3/3
f 4/6/2 5/7/2 2/5/2
f 5/1/4 1/2/4 3/3/4
f 4/6/2 1/4/2 5/7/2

